<?xml version="1.0" encoding="utf-8"?>

<!DOCTYPE svg PUBLIC "-//W3C//DTD SVG 1.1//EN" "http://www.w3.org/Graphics/SVG/1.1/DTD/svg11.dtd">
<!-- Uploaded to: SVG Repo, www.svgrepo.com, Generator: SVG Repo Mixer Tools -->
<svg height="800px" width="800px" version="1.1" id="_x32_" xmlns="http://www.w3.org/2000/svg" xmlns:xlink="http://www.w3.org/1999/xlink" 
	 viewBox="0 0 512 512"  xml:space="preserve">
<style type="text/css">
	.st0{fill:#000000;}
</style>
<g>
	<path class="st0" d="M430.209,409.11c-11.731-17.668-29.573-27.487-46.372-33.836c-8.428-3.174-16.676-5.498-23.952-7.449
		c-7.27-1.945-13.612-3.548-17.932-5.074c-6.49-2.273-13.077-5.505-17.552-9.136c-2.24-1.803-3.934-3.676-4.971-5.408
		c-0.522-0.882-0.895-1.706-1.139-2.524c4.842-5.144,10.746-9.426,17.449-13.65c11.403-7.244,24.944-14.307,36.289-26.978
		c11.377-12.665,19.812-30.867,21.627-58.354c1.121-16.348,5.222-28.498,9.336-40.416c4.082-11.854,8.338-23.656,8.351-38.104
		c0.006-11.39-2.698-24.081-9.529-39.231c-3.413-7.604-4.984-13.985-6.117-20.301c-1.706-9.394-2.208-19.065-6.568-30.487
		c-4.365-11.41-12.498-23.862-28.427-39.347c-9.13-8.866-21.93-18.408-36.804-25.896C309.026,5.454,292.061,0.02,274.637,0
		c-16.013-0.046-32.458,4.906-46.739,16.875c-1.088-0.045-2.177-0.135-3.271-0.135c-13.74,0.006-27.918,3.567-40.293,10.56
		c-12.349,6.98-22.96,17.539-28.781,31.498c-2.402,5.776-5.789,10.939-9.871,16.38c-6.098,8.146-13.792,16.812-20.752,28.582
		c-6.96,11.776-13.012,26.643-16.013,46.873c-0.837,5.621-1.204,11.12-1.204,16.515c0.007,16.329,3.316,31.602,6.973,46.752
		c3.664,15.169,7.688,30.248,9.594,46.345c2.009,16.973,6.291,28.91,12.395,37.705c4.552,6.593,10.064,11.222,15.601,14.744
		c8.344,5.287,16.606,8.409,23.726,12.91c6.716,4.256,12.633,9.459,17.861,19.072c-0.2,1.153-0.554,2.293-1.288,3.529
		c-1.539,2.608-4.629,5.505-8.686,8.048c-4.044,2.556-8.975,4.784-13.836,6.496c-5.776,2.048-15.08,4.179-25.504,7.166
		c-15.666,4.533-34.183,11.056-49.25,23.978c-7.52,6.458-14.12,14.57-18.769,24.654c-4.649,10.076-7.314,22.052-7.308,36.063
		c0,3.252,0.142,6.613,0.431,10.09c0.22,2.44,1.147,4.417,2.234,6.052c2.074,3.046,4.823,5.306,8.268,7.63
		c6.033,3.992,14.39,7.894,25.092,11.725c32.026,11.423,85.056,21.879,150.756,21.892c53.384,0,98.442-6.928,130.603-15.633
		c0.902-0.244,1.687-0.502,2.576-0.753c15.427-0.844,24.171-7.501,24.712-7.932l0.837-0.676c3.683-1.507,7.134-3.026,10.096-4.546
		c4.649-2.402,8.409-4.777,11.39-7.379c1.494-1.313,2.801-2.691,3.902-4.326c1.088-1.636,2.015-3.612,2.228-6.052
		c0.29-3.483,0.431-6.838,0.431-10.09C442.804,435.933,438.02,420.86,430.209,409.11z M186.594,315.214
		c-5.801-3.999-11.584-6.767-16.811-9.4c-7.913-3.973-14.352-7.54-19.497-13.876c-5.138-6.336-9.516-16.013-11.596-33.404
		c-2.074-17.404-6.31-33.121-9.91-48.04c-3.612-14.924-6.568-29.026-6.561-43.346c0-4.738,0.316-9.516,1.043-14.377
		c3.728-24.666,11.783-39.116,20.552-51.368c4.404-6.118,9.052-11.648,13.47-17.52c4.398-5.859,8.57-12.098,11.66-19.51
		c4.379-10.514,12.485-18.756,22.536-24.454c10.025-5.685,21.936-8.686,33.146-8.68c0.129,0,0.251,0.013,0.38,0.013
		c-0.573,1.127-1.158,2.26-1.68,3.355c-1.629,3.393-3.007,6.58-4.07,9.324c-1.063,2.762-1.809,4.99-2.196,6.876l9.053,1.803
		c0.161-0.863,0.786-2.891,1.745-5.344c1.996-5.17,5.472-12.517,9.49-19.4c11.57-9.587,24.113-13.308,37.287-13.36
		c14.339-0.02,29.328,4.61,42.746,11.371c13.412,6.728,25.233,15.562,33.198,23.328c9.98,9.709,16.239,17.674,20.308,24.531
		c6.072,10.296,7.52,18.112,8.976,27.545c1.416,9.355,2.704,20.282,8.724,33.616c6.181,13.772,8.235,24.197,8.248,33.282
		c0.006,11.474-3.387,21.357-7.553,33.365c-4.127,11.95-8.86,25.845-10.103,44.163c-1.146,16.76-4.764,28.71-9.664,37.821
		c-7.346,13.612-17.79,21.402-29.553,28.832c-8.77,5.57-18.306,10.74-26.818,18.106c0-4.584,0-9.825,0-15.729
		c9.568-10.624,23.502-26.959,28.929-53.409c5.254-2.228,10.192-5.57,14.191-11.268c4.726-6.657,8.518-16,12.722-30.667
		c2.363-8.294,3.303-14.816,3.31-20.082c0.019-7.521-2.028-12.646-4.726-15.782c-1.474-1.732-3.001-2.724-4.224-3.322l1.146-1.404
		c1.61-1.977,1.32-4.88-0.65-6.496c-1.977-1.61-4.881-1.32-6.497,0.65l-13.804,16.87c-0.335-2.118-0.709-4.7-1.114-7.926
		c-0.354-2.813-0.45-4.539-0.45-6.02c-0.02-2.633,0.392-5.215,0.47-11.39c0.876,0.18,1.687,0.425,2.602,0.566
		c2.517,0.393,4.88-1.326,5.273-3.844c0.393-2.517-1.326-4.88-3.844-5.273c-7.089-1.12-12.221-3.618-16.148-6.786
		c-5.878-4.752-9.149-11.267-10.933-17.378c-1.784-6.085-2.016-11.641-2.016-13.901l0.012-0.843l0.013-0.219
		c0.071-1.224-0.36-2.35-1.088-3.22c0.83-1.094,1.609-2.221,2.311-3.394c3.001-4.99,4.797-10.694,4.791-16.76
		c0.006-4.552-1.004-9.265-3.117-13.952c-1.049-2.324-3.779-3.361-6.103-2.318c-2.325,1.049-3.361,3.779-2.318,6.104
		c1.616,3.598,2.305,6.973,2.312,10.166c-0.006,4.25-1.23,8.248-3.477,12.008c-3.367,5.634-9.143,10.644-16.148,14.172
		c-6.992,3.535-15.163,5.576-23.063,5.57c-7.63,0-14.951-1.874-20.99-5.898c-0.612-0.412-1.288-0.605-1.97-0.695
		c1.744-4.141,3.502-9.246,3.547-14.719c0.052-4.578-1.5-9.723-5.66-13.496c-1.88-1.725-4.797-1.603-6.522,0.277
		c-1.726,1.873-1.604,4.796,0.277,6.522c1.977,1.867,2.627,3.844,2.678,6.697c0.058,4.642-2.524,10.778-4.584,15.118
		c-0.638,1.404-2.176,3.18-4.591,4.874c-7.192,5.202-21.402,8.982-32.277,8.911c-5.66,0.045-10.411-1.075-12.446-2.504
		c-0.219-0.148-0.47-0.18-0.702-0.283c0.862-1.9,1.7-3.741,2.427-5.441c0.824-1.925,1.533-3.715,2.067-5.422
		c0.528-1.712,0.927-3.316,0.94-5.125c0-1.32-0.245-2.904-1.243-4.417c-1.41-2.118-4.275-2.691-6.4-1.275
		c-1.886,1.255-2.453,3.638-1.584,5.646h-0.006v0.045c0.013,0.232-0.116,1.14-0.508,2.363c-1.352,4.391-5.415,12.24-9.137,21.222
		c-3.716,9.04-7.179,19.439-7.199,30.095c0,4.359,0.631,8.756,2.093,13.045v10.225l-20.906-18.396
		c-1.912-1.687-4.829-1.5-6.51,0.418c-1.687,1.913-1.5,4.829,0.419,6.51l3.09,2.717c-0.463,0.406-0.92,0.792-1.378,1.326
		c-2.697,3.136-4.752,8.261-4.726,15.782c0.007,5.267,0.947,11.789,3.31,20.082c4.204,14.667,7.997,24.01,12.723,30.667
		c3.998,5.698,8.937,9.04,14.191,11.274c5.428,26.444,19.362,42.779,28.929,53.403c0,4.23,0,8.042,0,11.57
		C194.983,321.736,190.811,318.105,186.594,315.214z M152.681,188.249l0.309,1.481l-0.316-1.481H152.681z M360.903,487.533
		c-27.474,5.621-61.915,9.664-101.075,9.916v-33.668h-10.547v33.61c-49.127-0.56-90.689-7.063-120.088-15.022
		c-15.363-4.153-27.448-8.718-35.368-12.806c-3.953-2.028-6.864-3.96-8.474-5.383c-0.689-0.599-1.075-1.056-1.268-1.32
		c-0.226-2.859-0.354-5.621-0.354-8.248c0.026-16.277,4.005-28.169,10.154-37.493c9.201-13.933,23.971-22.464,39.404-28.272
		c7.682-2.897,15.454-5.099,22.587-7.011c7.154-1.925,13.611-3.516,18.994-5.409c7.54-2.672,15.382-6.342,21.84-11.518
		c3.219-2.602,6.11-5.608,8.293-9.226c2.176-3.594,3.586-7.882,3.574-12.466h0.83c0-7.694,0-17.307,0-30.494V310.7l-1.352-1.506
		c-9.896-11.01-23.676-26.064-28.402-52.604l-0.534-3.02l-2.891-1.037c-5.254-1.944-8.351-3.76-11.899-8.602
		c-3.516-4.88-7.134-13.257-11.164-27.435c-2.17-7.592-2.91-13.193-2.904-17.185c0.02-5.763,1.43-8.01,2.196-8.93l0.837-0.722
		l0.065-0.032l-0.547-1.262l26.141,22.999v-32.142l-0.289-0.78c-1.256-3.393-1.81-6.992-1.81-10.759
		c-0.032-9.542,3.683-20.101,7.708-29.367c4.668,2.756,10.475,3.644,16.856,3.69c8.538-0.007,18.068-1.758,26.366-4.849
		c4.147-1.558,7.984-3.451,11.242-5.756c2.144-1.52,4.031-3.258,5.563-5.242c0.251,0.277,0.476,0.586,0.804,0.805
		c7.83,5.215,16.999,7.456,26.116,7.456c12.626-0.02,25.265-4.218,35.059-11.333c0.599-0.438,1.152-0.927,1.732-1.384
		c0.341,4.893,1.455,12.478,5.074,20.178c2.401,5.087,5.949,10.232,11.145,14.442c2.569,2.086,5.538,3.915,8.911,5.396
		c-0.071,0.322-0.193,0.631-0.193,0.972c0.006,7.116-0.47,9.227-0.49,13.186c0,1.938,0.142,4.121,0.528,7.167
		c0.992,7.951,1.836,12.478,2.466,15.169c0.676,2.705,0.985,3.496,1.623,4.488l3.496,4.99l19.355-23.662l-0.612,2.93l-0.933,2.672
		l0.109-0.328l-0.135,0.322c0.045,0.039,0.624,0.219,1.378,1.397c0.74,1.185,1.719,3.574,1.726,8.287
		c0.006,3.992-0.734,9.593-2.904,17.185c-4.031,14.178-7.65,22.555-11.165,27.435c-3.548,4.842-6.645,6.658-11.905,8.602
		l-2.884,1.037l-0.535,3.02c-4.726,26.54-18.511,41.594-28.401,52.604l-1.352,1.5v2.028c0,13.186,0,22.799,0,30.494h0.831
		c-0.013,4.584,1.397,8.872,3.573,12.466c3.29,5.421,8.106,9.49,13.373,12.838c5.28,3.329,11.1,5.911,16.76,7.906
		c0.296,0.104,0.644,0.2,0.946,0.303c3.773,5.602,10.856,16.85,17.803,31.814c9.472,20.353,18.538,47.44,18.711,75.906
		C370.22,485.512,365.707,486.555,360.903,487.533z M427.917,462.841l-0.624,0.74c-1.069,1.082-3.225,2.71-6.258,4.436
		c-1.552,0.895-3.387,1.829-5.37,2.775c-0.322-5.022-0.965-11.113-2.266-17.68c-2.214-11.126-6.239-23.598-13.914-34.19
		l-8.537,6.207c6.387,8.75,10.096,19.844,12.105,30.03c1.526,7.701,2.092,14.848,2.279,20.005
		c-5.802,2.202-12.646,4.417-20.289,6.555c-0.766-30.629-10.656-58.831-20.552-79.673c-3.921-8.242-7.83-15.324-11.184-20.964
		c3.264,0.863,6.619,1.758,10.141,2.775c14.97,4.282,31.492,10.405,43.803,21.035c6.168,5.319,11.338,11.699,15.054,19.735
		c3.695,8.035,5.962,17.777,5.968,29.985C428.271,457.233,428.136,459.988,427.917,462.841z"/>
</g>
</svg>